HIERARCHY
ROOT Hips
{
	OFFSET 0.00000 0.00000 0.00000
	CHANNELS 6 Xposition Yposition Zposition Zrotation Yrotation Xrotation 
	JOINT LHipJoint
	{
		OFFSET 0 0 0
		CHANNELS 3 Zrotation Yrotation Xrotation
		JOINT LeftHip
		{
			OFFSET 3.13874 -1.57224 1.49786
			CHANNELS 3 Zrotation Yrotation Xrotation
			JOINT LeftKnee
			{
				OFFSET 2.10955 -5.79594 0.00000
				CHANNELS 3 Zrotation Yrotation Xrotation
				JOINT LeftAnkle
				{
					OFFSET 2.41843 -6.64458 0.00000
					CHANNELS 3 Zrotation Yrotation Xrotation
					JOINT LeftToe
					{
						OFFSET 0.04713 -0.12948 1.66229
						CHANNELS 3 Zrotation Yrotation Xrotation
						End Site
						{
							OFFSET 0.00000 -0.00000 0.85167
						}
					}
				}
			}
		}
	}
	JOINT RHipJoint
	{
		OFFSET 0 0 0
		CHANNELS 3 Zrotation Yrotation Xrotation
		JOINT RightHip
		{
			OFFSET -3.13988 -1.57224 1.49786
			CHANNELS 3 Zrotation Yrotation Xrotation
			JOINT RightKnee
			{
				OFFSET -2.15006 -5.90725 0.00000
				CHANNELS 3 Zrotation Yrotation Xrotation
				JOINT RightAnkle
				{
					OFFSET -2.34496 -6.44273 0.00000
					CHANNELS 3 Zrotation Yrotation Xrotation
					JOINT RightToe
					{
						OFFSET -0.08699 -0.23900 1.55223
						CHANNELS 3 Zrotation Yrotation Xrotation
						End Site
						{
							OFFSET -0.00000 -0.00000 0.80281
						}
					}
				}
			}
		}
	}
	JOINT lowerback
	{
		OFFSET 0 0 0
		CHANNELS 3 Zrotation Yrotation Xrotation
		JOINT Chest
		{
			OFFSET 0.01292 1.96517 -0.16495
			CHANNELS 3 Zrotation Yrotation Xrotation
			JOINT Chest2
			{
				OFFSET 0.02122 1.88666 0.19706
				CHANNELS 3 Zrotation Yrotation Xrotation
				JOINT lowerneck
				{
					OFFSET 0 0 0
					CHANNELS 3 Zrotation Yrotation Xrotation
					JOINT Neck
					{
						OFFSET -0.01683 1.81591 0.07903
						CHANNELS 3 Zrotation Yrotation Xrotation
						JOINT Head
						{
							OFFSET 0.00815 1.74013 -0.47700
							CHANNELS 3 Zrotation Yrotation Xrotation
							End Site
							{
								OFFSET -0.00204 1.83225 -0.16933
							}
						}
					}
				}
				JOINT LeftCollar
				{
					OFFSET 0 0 0
					CHANNELS 3 Zrotation Yrotation Xrotation
					JOINT LeftShoulder
					{
						OFFSET 3.38482 1.41533 0.19802
CHANNELS 3 Zrotation Xrotation Yrotation
						JOINT LeftElbow
						{
OFFSET 0 -4.327120 0.000000
CHANNELS 3 Zrotation Xrotation Yrotation
							JOINT LeftWrist
							{
OFFSET 0 -3.285870 -0.000000
CHANNELS 3 Zrotation Xrotation Yrotation
								JOINT lhand
								{
									OFFSET 0 0 0
CHANNELS 3 Zrotation Xrotation Yrotation
									JOINT LFingers
									{
OFFSET 0 -0.433160 -0.000000
CHANNELS 3 Zrotation Xrotation Yrotation
										End Site
										{
OFFSET 0 -0.349220 -0.000000
										}
									}
								}
								JOINT LThumb
								{
OFFSET 0 0.000000 0.000000
CHANNELS 3 Zrotation Xrotation Yrotation
									End Site
									{
OFFSET 0 -0.354560 0.354560
									}
								}
							}
						}
					}
				}
				JOINT RightCollar
				{
					OFFSET 0 0 0
					CHANNELS 3 Zrotation Yrotation Xrotation
					JOINT RightShoulder
					{
						OFFSET -3.09725 1.62858 -0.14144
CHANNELS 3 Zrotation Xrotation Yrotation
						JOINT RightElbow
						{
OFFSET 0 -4.291040 0.000000
CHANNELS 3 Zrotation Xrotation Yrotation
							JOINT RightWrist
							{
OFFSET 0 -3.227200 -0.000000
CHANNELS 3 Zrotation Xrotation Yrotation
								JOINT rhand
								{
									OFFSET 0 0 0
CHANNELS 3 Zrotation Xrotation Yrotation
									JOINT RFingers
									{
OFFSET 0 -0.543620 -0.000000
CHANNELS 3 Zrotation Xrotation Yrotation
										End Site
										{
OFFSET 0 -0.438280 -0.000000
										}
									}
								}
								JOINT RThumb
								{
OFFSET 0 0.000000 0.000000
CHANNELS 3 Zrotation Xrotation Yrotation
									End Site
									{
OFFSET 0 -0.444970 0.444970
									}
								}
							}
						}
					}
				}
			}
		}
	}
}
MOTION
Frames: 8
Frame Time: 0.008333333333333333
-40.110400 15.783000 -1.798100 -98.166300 86.991200 -88.259500 0.000000 0.000000 0.000000 -35.775900 -29.012600 14.027700 0.041800 -1.320300 -3.630500 1.723900 15.705900 -34.647400 9.931500 -17.371100 -59.259100 0.000000 0.000000 0.000000 23.764800 16.182300 -10.217200 -0.819300 -5.775600 16.134700 -1.956200 -1.995800 -27.214500 -0.024000 0.999500 -2.747400 1.995200 1.629000 6.975600 1.083500 2.993900 -10.257000 -0.538600 1.397300 -15.258600 -1.498700 -4.127800 -19.776500 0.427400 -5.042000 32.663200 -0.411100 -2.005000 14.648500 0.000000 0.000000 0.000000 5.811200 19.512100 -19.964200 17.599800 -27.641700 4.362000 28.292600 22.402900 -31.327100 0.000000 0.000000 0.000000 -7.125000 0.000000 0.000000 -4.269900 64.585200 2.026000 0.000000 0.000000 0.000000 -18.069200 17.593700 44.939500 -18.697100 -29.040600 -4.882900 -23.438500 -2.420300 18.647800 0.000000 0.000000 0.000000 7.125000 0.000000 -0.000000 4.712700 50.115500 -0.595400
-40.099158 15.781530 -1.803548 -98.695023 87.040622 -88.791163 0.000000 0.000000 0.000000 -35.791596 -28.768993 13.927429 0.042189 -1.325791 -3.645634 1.624191 15.856673 -34.213413 10.120540 -17.475262 -59.888051 0.000000 0.000000 0.000000 23.693456 16.159167 -10.190262 -0.823321 -5.789350 16.174480 -1.955724 -2.058280 -27.236768 -0.027848 1.073568 -2.951271 1.923813 1.642145 6.935777 1.087997 2.995673 -10.203514 -0.491254 1.406726 -15.170696 -1.516082 -4.149506 -19.894326 0.431421 -5.071835 32.669080 -0.415035 -2.019528 14.678724 0.000000 0.000000 0.000000 5.815827 19.430941 -20.054266 17.613290 -27.659168 4.368270 28.272235 22.271670 -31.281137 0.000000 0.000000 0.000000 -7.125000 0.000000 0.000000 -4.268516 64.531627 2.019990 0.000000 0.000000 0.000000 -18.076551 17.498272 44.892327 -18.646943 -28.977558 -4.858643 -23.469545 -2.379612 18.767355 0.000000 0.000000 0.000000 7.125000 0.000000 0.000000 4.712397 50.247594 -0.610707
-40.087916 15.780060 -1.808996 -99.223746 87.090044 -89.322827 0.000000 0.000000 0.000000 -35.807291 -28.525386 13.827159 0.042578 -1.331283 -3.660767 1.524483 16.007447 -33.779426 10.309579 -17.579424 -60.517001 0.000000 0.000000 0.000000 23.622112 16.136035 -10.163325 -0.827342 -5.803100 16.214259 -1.955249 -2.120760 -27.259036 -0.031696 1.147636 -3.155141 1.852426 1.655289 6.895954 1.092494 2.997446 -10.150027 -0.443907 1.416152 -15.082791 -1.533464 -4.171212 -20.012151 0.435442 -5.101669 32.674961 -0.418969 -2.034056 14.708948 0.000000 0.000000 0.000000 5.820453 19.349782 -20.144333 17.626781 -27.676637 4.374539 28.251869 22.140441 -31.235174 0.000000 0.000000 0.000000 -7.125000 0.000000 0.000000 -4.267133 64.478054 2.013980 0.000000 0.000000 0.000000 -18.083901 17.402844 44.845153 -18.596786 -28.914516 -4.834386 -23.500591 -2.338925 18.886910 0.000000 0.000000 0.000000 7.125000 0.000000 0.000000 4.712095 50.379689 -0.626013
-40.076020 15.778322 -1.813909 -100.101367 87.113196 -90.202318 0.000000 0.000000 0.000000 -35.788516 -28.276906 13.715953 0.042670 -1.332525 -3.664222 1.463822 16.006073 -33.426088 10.472974 -17.666410 -61.056625 0.000000 0.000000 0.000000 23.578493 16.129038 -10.132108 -0.833057 -5.822555 16.270531 -1.959528 -2.176405 -27.310396 -0.037239 1.240752 -3.411520 1.803237 1.656755 6.844899 1.099546 2.989739 -10.125128 -0.404644 1.419308 -15.022107 -1.548914 -4.178951 -20.012301 0.448111 -5.111416 32.677632 -0.412920 -2.038035 14.711357 0.000000 0.000000 0.000000 5.789182 19.317030 -20.060886 17.631713 -27.682991 4.376827 28.229810 22.139041 -31.155603 0.000000 0.000000 0.000000 -7.125000 0.000000 0.000000 -4.248454 64.389001 1.996410 0.000000 0.000000 0.000000 -18.085011 17.412255 44.812659 -18.563300 -28.872394 -4.818182 -23.578172 -2.262726 19.043254 0.000000 0.000000 0.000000 7.125000 0.000000 0.000000 4.675449 50.558853 -0.641438
-40.063827 15.776463 -1.818579 -101.137757 87.124395 -91.240091 0.000000 0.000000 0.000000 -35.754055 -28.026207 13.599770 0.042627 -1.331833 -3.662363 1.420929 15.935465 -33.109451 10.624699 -17.745580 -61.555600 0.000000 0.000000 0.000000 23.547491 16.129384 -10.098944 -0.839543 -5.844607 16.334309 -1.965970 -2.228940 -27.374995 -0.043551 1.342536 -3.691794 1.764149 1.652907 6.788732 1.107761 2.977719 -10.113237 -0.369058 1.419611 -14.973809 -1.563486 -4.180335 -19.958901 0.464715 -5.112021 32.678843 -0.402326 -2.037214 14.701110 0.000000 0.000000 0.000000 5.741577 19.306307 -19.898481 17.632751 -27.684289 4.377303 28.206980 22.196722 -31.060737 0.000000 0.000000 0.000000 -7.125000 0.000000 0.000000 -4.221906 64.283801 1.973580 0.000000 0.000000 0.000000 -18.083282 17.469373 44.786846 -18.537400 -28.839792 -4.805643 -23.676929 -2.170368 19.216339 0.000000 0.000000 0.000000 7.125000 0.000000 0.000000 4.622265 50.759438 -0.656918
-40.051860 15.774490 -1.823557 -102.023885 87.100616 -92.119684 0.000000 0.000000 0.000000 -35.701230 -27.835410 13.511603 0.042470 -1.329392 -3.655629 1.402083 15.818688 -32.892874 10.734757 -17.802776 -61.917236 0.000000 0.000000 0.000000 23.549654 16.110896 -10.096726 -0.847357 -5.871063 16.410862 -1.975004 -2.230498 -27.436193 -0.047662 1.408726 -3.874079 1.745303 1.649885 6.733892 1.127345 2.974734 -10.131467 -0.334687 1.423184 -14.962984 -1.565977 -4.182236 -19.808452 0.477966 -5.114003 32.682223 -0.392850 -2.035291 14.669519 0.000000 0.000000 0.000000 5.666684 19.340748 -19.640453 17.630453 -27.681294 4.376224 28.227209 22.402866 -31.013529 0.000000 0.000000 0.000000 -7.125000 0.000000 0.000000 -4.168816 64.240266 1.944337 0.000000 0.000000 0.000000 -18.088175 17.591801 44.782538 -18.510868 -28.806364 -4.792829 -23.748789 -2.107337 19.294787 0.000000 0.000000 0.000000 7.125000 0.000000 0.000000 4.571284 50.854926 -0.660722
-40.040272 15.772328 -1.829048 -102.659062 87.018419 -92.735101 0.000000 0.000000 0.000000 -35.617736 -27.744651 13.470223 0.042125 -1.324030 -3.640755 1.423400 15.624805 -32.843409 10.775229 -17.823271 -62.049504 0.000000 0.000000 0.000000 23.607205 16.060956 -10.146191 -0.857388 -5.904876 16.508755 -1.988365 -2.146917 -27.491711 -0.048094 1.415471 -3.892715 1.760264 1.648242 6.681271 1.165914 2.986841 -10.200000 -0.302345 1.432221 -15.014741 -1.548292 -4.185004 -19.495923 0.485620 -5.118284 32.689228 -0.385240 -2.031529 14.602283 0.000000 0.000000 0.000000 5.546221 19.450618 -19.222724 17.622583 -27.671133 4.372548 28.319350 22.856959 -31.045915 0.000000 0.000000 0.000000 -7.125000 0.000000 0.000000 -4.071399 64.299720 1.904384 0.000000 0.000000 0.000000 -18.104131 17.823301 44.814145 -18.483282 -28.771557 -4.779554 -23.775726 -2.093284 19.215185 0.000000 0.000000 0.000000 7.125000 0.000000 0.000000 4.523981 50.774891 -0.645026
-40.028564 15.770145 -1.834633 -103.293224 86.939377 -93.348646 0.000000 0.000000 0.000000 -35.539611 -27.657662 13.430107 0.041749 -1.318204 -3.624615 1.451803 15.401375 -32.810935 10.806576 -17.839113 -62.151905 0.000000 0.000000 0.000000 23.660628 16.009148 -10.195872 -0.867201 -5.937925 16.604444 -2.001429 -2.064520 -27.545726 -0.048505 1.421856 -3.910352 1.776955 1.647151 6.630420 1.202939 2.998689 -10.258771 -0.272449 1.440673 -15.055508 -1.534419 -4.187651 -19.222605 0.494782 -5.122679 32.693241 -0.377403 -2.028411 14.542680 0.000000 0.000000 0.000000 5.435860 19.545321 -18.852527 17.620465 -27.668398 4.371555 28.430981 23.284146 -31.096072 0.000000 0.000000 0.000000 -7.125000 0.000000 0.000000 -3.959277 64.383280 1.859234 0.000000 0.000000 0.000000 -18.118731 18.027818 44.837742 -18.452838 -28.733122 -4.764915 -23.796136 -2.078775 19.135096 0.000000 0.000000 0.000000 7.125000 0.000000 0.000000 4.483038 50.693234 -0.630041
